# xmcd
#
# Track frame offsets:
# 150
# 12846
# 28647
# 50564
# 75418
# 90728
# 108428
# 141358
# 164432
# 181401
# 202070
#
# Disc length: 3217 seconds
#
# Revision: 0
# Processed by: cddbd v1.5.2PL0 Copyright (c) Steve Scherf et al.
# Submitted via: Audion 3.0.2 (http://www.panic.com/audion/)
#
DISCID=8f0c8f0b
DTITLE=Ross Neilsen - Redemption
DYEAR=2013
DGENRE=Blues/Rock
TTITLE0=Afflicted
TTITLE1=Fire in the Ground
TTITLE2=Hot Little Pistol
TTITLE3=Devil Knows
TTITLE4=What You Can
TTITLE5=Posession
TTITLE6=She Ain't You
TTITLE7=Commit a Crime
TTITLE8=Badlands
TTITLE9=Human Mud
TTITLE10=Bold and Beaten
EXTD=
EXTT0=
EXTT1=
EXTT2=
EXTT3=
EXTT4=
EXTT5=
EXTT6=
EXTT7=
EXTT8=
EXTT9=
EXTT10=
PLAYORDER=
